<svg width="17" height="16" fill="none" xmlns="http://www.w3.org/2000/svg"><path d="M1.667 15.833h11.089a1.674 1.674 0 001.56-1.082l2.298-6.125a.832.832 0 00.053-.293V6.666C16.667 5.747 15.919 5 15 5h-4.677l.935-2.806A1.67 1.67 0 0011.03.692 1.674 1.674 0 009.677 0H8.333a.836.836 0 00-.64.3L3.776 5h-2.11C.749 5 0 5.747 0 6.666v7.5c0 .92.748 1.667 1.667 1.667zM8.724 1.666h.954L8.377 5.57a.833.833 0 00.79 1.096H15v1.516l-2.244 5.984H5V6.135l3.724-4.469zm-5.39 5v7.5H1.666l-.001-7.5h1.667z" fill="#BABABA"/></svg>