<svg width="144" height="26" fill="none" xmlns="http://www.w3.org/2000/svg"><path fill-rule="evenodd" clip-rule="evenodd" d="M12.628 23.284c5.517 0 9.99-4.604 9.99-10.284 0-5.68-4.473-10.284-9.99-10.284S2.638 7.321 2.638 13c0 5.68 4.473 10.284 9.99 10.284zm0 2.716c6.974 0 12.628-5.82 12.628-13S19.602 0 12.628 0 0 5.82 0 13s5.654 13 12.628 13z" fill="#fff"/><path fill-rule="evenodd" clip-rule="evenodd" d="M12.44 18.627c2.914 0 5.277-2.433 5.277-5.433S15.354 7.76 12.44 7.76c-2.915 0-5.278 2.432-5.278 5.433 0 3 2.363 5.433 5.278 5.433zm0 2.328c4.163 0 7.539-3.475 7.539-7.761 0-4.287-3.376-7.761-7.54-7.761-4.163 0-7.538 3.474-7.538 7.76 0 4.287 3.375 7.762 7.539 7.762z" fill="#fff"/><path d="M124.781.006c-.017.07-.04 16.567-.023 16.92.103 1.93.609 3.62 1.493 4.995a7.658 7.658 0 001.401 1.65c1.103.997 2.445 1.668 4.071 2.041 1.43.326 3.161.381 4.577.146 2.59-.434 4.739-1.79 6.132-3.874.201-.305.588-1.01.73-1.336a10.44 10.44 0 00.722-5.66c-.244-1.647-.892-3.175-1.873-4.423a8.949 8.949 0 00-4.119-2.904c-1.467-.508-3.193-.674-4.779-.458-1.893.257-3.772 1.103-5.06 2.277-.165.151-.301.273-.304.273-.006 0-.009-2.171-.009-4.827V0h-1.478c-.813 0-1.478.003-1.481.006zm10.464 9.86a6.212 6.212 0 011.959.517 5.718 5.718 0 012.456 2.068c.441.66.765 1.433.941 2.226.151.699.173.907.17 1.785 0 .72-.008.868-.062 1.201-.381 2.25-1.655 3.985-3.573 4.86-.907.413-1.862.59-2.971.556-2.243-.074-4.031-.963-5.142-2.557-.617-.884-.998-2.007-1.115-3.274-.048-.534-.02-1.52.06-2.002.395-2.444 1.816-4.2 4.062-5.022.913-.336 2.098-.466 3.215-.357zm-37.239 2.999V25.65h2.956v-6.447c0-4.057.012-6.59.029-6.836.085-1.156.446-1.889 1.145-2.34.381-.247.822-.358 1.427-.358.472-.002.751.056 1.095.222.719.35 1.126.934 1.359 1.955.039.177.048.915.062 6.995l.014 6.796 1.487.008 1.484.005v-6.778c0-6.812-.003-7.11-.102-7.74-.279-1.793-1.146-3.07-2.493-3.676-.975-.437-2.283-.566-3.474-.341a6.337 6.337 0 00-1.805.666l-.214.122-.008-3.914-.006-3.911h-2.956v12.786zM35.878 7.036c-2.382.267-4.054 1.627-4.634 3.766-.13.476-.181.836-.215 1.468-.018.333-.026 3.02-.02 6.955l.008 6.413 1.484.008 1.487.005.008-6.841c.009-6.318.012-6.863.057-7.069.248-1.15.87-1.812 1.902-2.026.321-.069.97-.06 1.26.013.917.23 1.563.913 1.813 1.918l.062.24.006 6.881.009 6.884h2.984v-6.78c0-4.655.009-6.847.032-6.99.196-1.343 1.114-2.192 2.433-2.248.418-.018.697.019 1.032.135.807.28 1.316.934 1.555 1.991.043.188.048.847.057 7.05l.008 6.842h2.957l-.009-6.987-.005-6.99-.066-.356c-.287-1.627-.94-2.743-2.05-3.507-1.557-1.07-4.036-1.073-5.764-.008-.364.228-.97.775-1.189 1.077-.12.164-.145.187-.17.15-.381-.595-.904-1.047-1.626-1.407a6.335 6.335 0 00-1.771-.552c-.324-.05-1.308-.072-1.635-.035zm25.428-.01c-1.93.135-3.75.788-5.23 1.886a12.08 12.08 0 00-1.33 1.203 9.333 9.333 0 00-2.278 4.668c-.113.66-.13.899-.13 1.732.002 1.068.082 1.713.327 2.644.793 3.012 2.97 5.276 5.995 6.239 2.948.939 6.328.555 8.787-1a9.78 9.78 0 001.882-1.576c1.321-1.462 2.112-3.335 2.3-5.461.048-.542.016-1.743-.058-2.253-.32-2.19-1.302-4.075-2.888-5.548C67.114 8.1 65.05 7.214 62.8 7.034a16.544 16.544 0 00-1.493-.008zm1.607 2.745c.87.114 1.651.365 2.359.756 1.882 1.043 3.047 2.915 3.258 5.231.042.466.02 1.426-.046 1.854-.227 1.534-.858 2.817-1.862 3.792-.955.929-2.078 1.473-3.525 1.714-.483.08-1.66.087-2.146.013a6.706 6.706 0 01-1.848-.534 6.044 6.044 0 01-2.925-2.795c-.87-1.72-.995-3.98-.33-5.866.859-2.435 2.931-3.996 5.586-4.204a9.54 9.54 0 011.479.04zm26.539-2.735c-2.72.283-4.514 2.053-4.821 4.753-.037.306-.043 1.385-.043 7.113v6.75l1.487-.006 1.484-.008.014-6.81c.02-7.494.003-6.918.185-7.476.278-.846.861-1.417 1.648-1.608 1.49-.357 2.724.37 3.127 1.849.145.537.14.188.148 7.346l.009 6.712h2.956l-.008-6.976c-.009-7.688.005-7.08-.18-7.807-.537-2.123-2.052-3.461-4.292-3.795-.338-.05-1.373-.074-1.714-.037zm-12.012.023c-1.84.137-3.48 1.16-4.302 2.69-1.125 2.09-.44 4.637 1.638 6.06.64.44 1.418.74 2.28.884.29.047 1.475.047 1.762 0 1.14-.188 2.098-.64 2.88-1.362 1.668-1.545 2.015-3.925.85-5.842a4.678 4.678 0 00-.87-1.04c-.776-.716-1.706-1.16-2.794-1.335a7.633 7.633 0 00-1.445-.055zm1.065 2.475c.225.055.6.214.782.33.73.468 1.129 1.38 1.012 2.325-.15 1.203-.952 1.983-2.177 2.118-1.103.124-2.073-.349-2.53-1.227a2.724 2.724 0 01-.131-2.11c.11-.296.287-.574.509-.793.372-.368.727-.553 1.287-.67.25-.052.993-.037 1.248.027zm32.918 4.583c0 7.336-.005 7.082.145 7.764.557 2.555 2.55 4.062 5.37 4.062 2.775 0 4.762-1.462 5.356-3.94.182-.759.167-.251.179-7.822l.011-6.881h-2.987l-.006 6.748c-.009 6.413-.012 6.765-.06 7.003-.315 1.529-1.367 2.364-2.789 2.224-1.233-.124-1.93-.83-2.197-2.224-.043-.23-.048-.817-.057-7.003L114.38 7.3h-2.957v6.817z" fill="#fff"/></svg>