<svg width="8" height="9" fill="none" xmlns="http://www.w3.org/2000/svg"><g clip-path="url(#clip0_744_2997)"><path d="M8 4.952a3.952 3.952 0 01-1.172 2.806A4.016 4.016 0 014 8.92a4.016 4.016 0 01-2.828-1.162A3.952 3.952 0 010 4.952C0 3.9.421 2.891 1.172 2.146A4.016 4.016 0 014 .984c1.06 0 2.078.418 2.828 1.162A3.952 3.952 0 018 4.952zm-5.252-.975h.412c.07 0 .124-.056.133-.124.045-.326.27-.563.671-.563.344 0 .658.17.658.58 0 .314-.188.46-.483.68-.337.242-.603.525-.584.985l.002.108a.124.124 0 00.125.122h.405a.125.125 0 00.125-.124v-.052c0-.356.136-.46.505-.737.304-.23.622-.485.622-1.02 0-.75-.638-1.112-1.337-1.112-.633 0-1.327.293-1.374 1.134a.117.117 0 00.073.114.12.12 0 00.047.009zM3.91 7.172c.305 0 .515-.195.515-.46 0-.273-.21-.466-.514-.466-.292 0-.505.193-.505.467 0 .264.212.46.504.46z" fill="#FFEB39"/></g><defs><clipPath id="clip0_744_2997"><path fill="#fff" transform="translate(0 .984)" d="M0 0h8v7.936H0z"/></clipPath></defs></svg>