<svg width="12" height="12" fill="none" xmlns="http://www.w3.org/2000/svg"><path d="M10.84 11.812L7.024 7.99a4.15 4.15 0 01-2.59.888c-1.24 0-2.288-.43-3.146-1.29C.43 6.729 0 5.68 0 4.439c0-1.24.43-2.29 1.287-3.15C2.145.43 3.193 0 4.432 0 5.67 0 6.719.43 7.577 1.288c.858.86 1.287 1.91 1.287 3.15a4.167 4.167 0 01-.887 2.595l3.835 3.84a.627.627 0 01.188.461.655.655 0 01-.204.478.646.646 0 01-.478.188.646.646 0 01-.477-.188zM4.433 7.511c.852 0 1.577-.299 2.173-.896A2.967 2.967 0 007.5 4.438c0-.853-.298-1.579-.895-2.177a2.958 2.958 0 00-2.173-.895 2.96 2.96 0 00-2.174.895 2.967 2.967 0 00-.894 2.177c0 .854.298 1.58.894 2.177a2.958 2.958 0 002.174.896z" fill="#7F7F7F"/></svg>