<svg xmlns="http://www.w3.org/2000/svg">
<symbol id="discord" viewBox="0 0 20 20">
<g>
<path d="M11.7367 1.3335C11.3297 1.3335 10.9396 1.49756 10.6513 1.76207C10.3629 2.02658 10.1577 2.37646 10 2.79332C9.72016 3.53662 9.60314 4.50258 9.57939 5.6326C7.49671 5.69622 5.58024 6.22859 4.04367 7.10582C3.58067 6.67725 2.99046 6.46296 2.40195 6.46296C1.7897 6.46296 1.17575 6.69566 0.705957 7.15939C-0.235319 8.08852 -0.235319 9.57847 0.705957 10.5076L0.814501 10.6147C0.583846 11.2057 0.448166 11.8285 0.448166 12.4764C0.448166 14.4166 1.56243 16.156 3.29743 17.3781C5.03244 18.6002 7.39835 19.3335 10 19.3335C12.6017 19.3335 14.9676 18.6002 16.7026 17.3781C18.4376 16.156 19.5518 14.4166 19.5518 12.4764C19.5518 11.8285 19.4162 11.2057 19.1855 10.6147L19.294 10.5076C20.2353 9.57847 20.2353 8.08852 19.294 7.15939C18.8243 6.69566 18.2103 6.46296 17.598 6.46296C17.0095 6.46296 16.4193 6.67725 15.9563 7.10582C14.4265 6.23361 12.5185 5.70124 10.4477 5.6326C10.4749 4.56787 10.5919 3.67725 10.8141 3.08796C10.9396 2.75481 11.0973 2.51542 11.2483 2.37814C11.3992 2.24086 11.5366 2.19064 11.7367 2.19064C11.9368 2.19064 12.0335 2.24421 12.1844 2.36475C12.3354 2.48528 12.5118 2.68283 12.7407 2.91385C13.1495 3.32736 13.7753 3.78272 14.8166 3.87814C15.01 4.86419 15.8936 5.61921 16.9468 5.61921C18.1408 5.61921 19.1177 4.65492 19.1177 3.47635C19.1177 2.29778 18.1408 1.3335 16.9468 1.3335C15.9071 1.3335 15.0252 2.06676 14.8166 3.03439C14.0432 2.96073 13.7024 2.66609 13.3649 2.32457C13.1698 2.12702 12.99 1.896 12.7407 1.6951C12.4914 1.49421 12.1437 1.3335 11.7367 1.3335ZM16.9468 2.19064C17.671 2.19064 18.2493 2.76151 18.2493 3.47635C18.2493 4.1912 17.671 4.76207 16.9468 4.76207C16.2226 4.76207 15.6443 4.1912 15.6443 3.47635C15.6443 2.76151 16.2226 2.19064 16.9468 2.19064ZM10 6.47635C12.4354 6.47635 14.6351 7.16776 16.2006 8.271C17.766 9.37423 18.6835 10.8592 18.6835 12.4764C18.6835 14.0935 17.766 15.5785 16.2006 16.6817C14.6351 17.7849 12.4354 18.4764 10 18.4764C7.56455 18.4764 5.36485 17.7849 3.79945 16.6817C2.23405 15.5785 1.31651 14.0935 1.31651 12.4764C1.31651 10.8592 2.23405 9.37423 3.79945 8.271C5.36485 7.16776 7.56455 6.47635 10 6.47635ZM2.40195 7.30671C2.70723 7.30671 3.0159 7.39711 3.28387 7.58796C2.41382 8.20403 1.70151 8.94901 1.20797 9.78439C0.700869 9.17501 0.734789 8.33629 1.31651 7.76207C1.62688 7.45571 2.01526 7.30671 2.40195 7.30671ZM17.598 7.30671C17.9847 7.30671 18.3731 7.45571 18.6835 7.76207C19.2652 8.33629 19.2991 9.17501 18.792 9.78439C18.2985 8.94901 17.5862 8.20403 16.7161 7.58796C16.9841 7.39711 17.2928 7.30671 17.598 7.30671ZM6.52661 9.47635C5.57176 9.47635 4.78991 10.2481 4.78991 11.1906C4.78991 12.1332 5.57176 12.9049 6.52661 12.9049C7.48145 12.9049 8.2633 12.1332 8.2633 11.1906C8.2633 10.2481 7.48145 9.47635 6.52661 9.47635ZM13.4734 9.47635C12.5185 9.47635 11.7367 10.2481 11.7367 11.1906C11.7367 12.1332 12.5185 12.9049 13.4734 12.9049C14.4282 12.9049 15.2101 12.1332 15.2101 11.1906C15.2101 10.2481 14.4282 9.47635 13.4734 9.47635ZM6.52661 10.3335C7.01166 10.3335 7.39495 10.7118 7.39495 11.1906C7.39495 11.6694 7.01166 12.0478 6.52661 12.0478C6.04155 12.0478 5.65826 11.6694 5.65826 11.1906C5.65826 10.7118 6.04155 10.3335 6.52661 10.3335ZM13.4734 10.3335C13.9584 10.3335 14.3417 10.7118 14.3417 11.1906C14.3417 11.6694 13.9584 12.0478 13.4734 12.0478C12.9883 12.0478 12.605 11.6694 12.605 11.1906C12.605 10.7118 12.9883 10.3335 13.4734 10.3335ZM13.9754 14.5522C13.9517 14.5556 13.9296 14.5589 13.9076 14.5656C13.7702 14.5924 13.6549 14.6812 13.5955 14.8067C13.5955 14.8067 13.3682 15.1181 12.795 15.4764C12.2218 15.8346 11.328 16.1996 10 16.1996C8.67204 16.1996 7.77825 15.8346 7.205 15.4764C6.63176 15.1181 6.40449 14.8067 6.40449 14.8067C6.30613 14.6544 6.12126 14.579 5.94318 14.6192C5.80242 14.6544 5.68879 14.7548 5.6396 14.8904C5.59042 15.0243 5.61247 15.1733 5.69896 15.2889C5.69896 15.2889 6.03307 15.7643 6.73012 16.1996C7.42718 16.6348 8.50583 17.0567 10 17.0567C11.4942 17.0567 12.5728 16.6348 13.2699 16.1996C13.9669 15.7643 14.301 15.2889 14.301 15.2889C14.4316 15.165 14.4706 14.9724 14.3977 14.8084C14.3248 14.6443 14.1569 14.5422 13.9754 14.5522Z" />
</g>
</symbol>
<symbol id="telegram" viewBox="0 0 16 16">
<g>
<path d="M15.056 0.00112809C14.8788 0.0093214 14.7063 0.061299 14.5507 0.126946C14.3967 0.192154 13.5102 0.590872 12.2011 1.18067C10.8919 1.77047 9.19018 2.53852 7.50326 3.30011C4.12941 4.82329 0.814028 6.32199 0.814028 6.32199L0.838192 6.31225C0.838192 6.31225 0.638092 6.38273 0.435218 6.53169C0.333781 6.60616 0.224651 6.70231 0.135297 6.84249C0.0459429 6.98266 -0.0193809 7.18132 0.00523652 7.39144C0.0917039 8.12948 0.817581 8.33882 0.817581 8.33882L0.820424 8.34032L4.05985 9.50863C4.14245 9.79897 5.04239 12.9641 5.24035 13.6344C5.34968 14.005 5.45201 14.2188 5.55875 14.3646C5.61216 14.4376 5.66814 14.4941 5.73003 14.5354C5.75462 14.5518 5.78048 14.5641 5.80608 14.5751H5.8075C5.81064 14.5765 5.8136 14.5766 5.81674 14.5781L5.80821 14.5758C5.81415 14.5783 5.82002 14.5826 5.82598 14.5848C5.83753 14.5891 5.8446 14.5889 5.85938 14.5923C6.23038 14.7288 6.5374 14.4754 6.5374 14.4754L6.55019 14.465L8.54019 12.52L11.7697 15.1734L11.8102 15.1929C12.3755 15.4574 12.8867 15.3098 13.1698 15.0671C13.4529 14.8244 13.5642 14.5114 13.5642 14.5114L13.5763 14.4784L15.9494 1.44504C16.0101 1.15345 16.0187 0.90141 15.9615 0.673656C15.9042 0.445901 15.7651 0.247917 15.5905 0.13818C15.4159 0.0284431 15.2332 -0.00706522 15.056 0.00112809ZM15.0752 0.780751C15.1472 0.777238 15.2005 0.785909 15.2173 0.796478C15.2342 0.807047 15.2417 0.805656 15.2578 0.869872C15.274 0.934088 15.2827 1.06934 15.2387 1.28103L15.2372 1.28552L12.8777 14.2433C12.8721 14.2563 12.8229 14.3762 12.7107 14.4725C12.5961 14.5707 12.4688 14.6473 12.1307 14.4979L8.59918 11.5959L8.49968 11.5135L8.49755 11.5157L7.44143 10.6807L13.3766 3.32258C13.4222 3.26618 13.4513 3.19708 13.4604 3.12361C13.4696 3.05015 13.4583 2.97547 13.428 2.90861C13.3977 2.84175 13.3497 2.78556 13.2897 2.74686C13.2298 2.70815 13.1605 2.68857 13.0902 2.69049C13.0215 2.69237 12.9547 2.7147 12.8976 2.7549L4.30931 8.78817L1.06491 7.61762C1.06491 7.61762 0.742741 7.4287 0.727321 7.29708C0.726466 7.28979 0.722662 7.29639 0.739403 7.27012C0.756144 7.24386 0.798226 7.19951 0.850985 7.16078C0.956504 7.0833 1.07699 7.03646 1.07699 7.03646L1.08907 7.03196L1.10116 7.02672C1.10116 7.02672 4.41671 5.52794 7.79039 4.00484C9.47722 3.24329 11.1787 2.47581 12.4875 1.88615C13.796 1.29665 14.7414 0.872331 14.8215 0.838418C14.9126 0.799959 15.0032 0.784263 15.0752 0.780751ZM11.1393 4.91178L6.63832 10.492L6.63619 10.4942C6.62916 10.5031 6.62252 10.5124 6.61629 10.5219C6.60915 10.5323 6.60251 10.543 6.59639 10.5541C6.5711 10.5993 6.55489 10.6496 6.54877 10.7017C6.54877 10.7027 6.54877 10.7037 6.54877 10.7047L5.96243 13.4831C5.95269 13.4531 5.94586 13.4421 5.93543 13.4067V13.406C5.74919 12.7754 4.90012 9.79041 4.78265 9.37757L11.1393 4.91178ZM7.14648 11.4064L7.95527 12.046L6.76696 13.2068L7.14648 11.4064Z" />
</g>
</symbol>
<symbol id="twiter" viewBox="0 0 20 16">
<g>
<path d="M13.4383 0.666504C11.2067 0.666504 9.39203 2.48391 9.39203 4.7188C9.39203 4.8531 9.42555 4.98448 9.43867 5.11586C6.67944 4.85164 4.23942 3.52034 2.58213 1.48397C2.50487 1.38617 2.38535 1.33361 2.26 1.34237C2.1361 1.35113 2.02532 1.42266 1.9641 1.53068C1.61574 2.13064 1.41605 2.82111 1.41605 3.56267C1.41605 4.46042 1.73672 5.28227 2.2323 5.95668C2.1361 5.91435 2.03115 5.89099 1.94078 5.8399C1.82563 5.77859 1.68716 5.78151 1.57492 5.84866C1.46269 5.91581 1.39418 6.03697 1.39272 6.16688V6.2136C1.39272 7.59015 2.10403 8.7857 3.1535 9.5185C3.14184 9.51704 3.13018 9.52142 3.11852 9.5185C2.99025 9.4966 2.86053 9.54185 2.77453 9.63966C2.68853 9.73746 2.66084 9.87322 2.69873 9.9973C3.11561 11.295 4.17965 12.2862 5.49732 12.6482C4.44785 13.273 3.23076 13.6409 1.91746 13.6409C1.63323 13.6409 1.36066 13.6263 1.08954 13.5941C0.914632 13.5708 0.747008 13.673 0.688704 13.8394C0.628942 14.0058 0.694534 14.1912 0.844667 14.2832C2.52819 15.3648 4.52656 15.9998 6.67506 15.9998C10.1573 15.9998 12.8888 14.543 14.721 12.4614C16.5532 10.3798 17.5079 7.67628 17.5079 5.15089C17.5079 5.04433 17.4992 4.94068 17.4963 4.83558C18.1799 4.31153 18.7906 3.69697 19.2687 2.97877C19.3635 2.84009 19.3533 2.6547 19.2439 2.52624C19.1361 2.39778 18.9539 2.35837 18.8023 2.4299C18.6099 2.51602 18.3854 2.52478 18.1843 2.59339C18.4495 2.23867 18.6769 1.85621 18.8139 1.42558C18.8606 1.27814 18.8096 1.11611 18.6886 1.01977C18.5676 0.924882 18.3985 0.913203 18.2659 0.99349C17.6289 1.37157 16.9234 1.63725 16.1786 1.79928C15.4556 1.12195 14.5038 0.666504 13.4383 0.666504ZM13.4383 1.4139C14.3901 1.4139 15.2501 1.82118 15.8521 2.46493C15.9425 2.55835 16.0751 2.59777 16.2019 2.57003C16.6888 2.47369 17.1508 2.33209 17.6012 2.14962C17.3418 2.49996 17.0211 2.79922 16.645 3.02548C16.4745 3.10868 16.3943 3.30575 16.457 3.4853C16.5182 3.66339 16.7048 3.76704 16.8899 3.72616C17.2631 3.68091 17.5954 3.5291 17.9511 3.43421C17.6318 3.78017 17.282 4.09256 16.9016 4.36846C16.7981 4.44437 16.7412 4.56699 16.75 4.69545C16.7558 4.84726 16.7616 4.99762 16.7616 5.15089C16.7616 7.48651 15.8667 10.0221 14.1613 11.9592C12.4559 13.8963 9.95175 15.2524 6.67506 15.2524C5.18685 15.2524 3.78173 14.9225 2.51216 14.3415C4.08637 14.2204 5.53814 13.6628 6.71005 12.7416C6.83248 12.6438 6.88058 12.4804 6.83103 12.3315C6.78147 12.1826 6.64445 12.0804 6.48849 12.076C5.25828 12.0541 4.22775 11.3374 3.67824 10.3243C3.69865 10.3243 3.71614 10.3243 3.73654 10.3243C4.10532 10.3243 4.46972 10.2776 4.80934 10.1841C4.97259 10.136 5.08482 9.98416 5.07899 9.81337C5.07316 9.64258 4.95218 9.4966 4.78601 9.46011C3.45814 9.19151 2.4626 8.10837 2.2323 6.76247C2.60836 6.89239 2.99317 6.99457 3.41004 7.00771C3.58058 7.01793 3.73509 6.91136 3.78756 6.74933C3.84003 6.5873 3.7759 6.40921 3.6316 6.3187C2.74538 5.72458 2.16234 4.71296 2.16234 3.56267C2.16234 3.13642 2.27311 2.7452 2.41887 2.37151C4.2846 4.42247 6.89662 5.78443 9.8468 5.93332C9.96341 5.93916 10.0771 5.89099 10.1529 5.80194C10.2287 5.71144 10.2578 5.59174 10.2316 5.47788C10.1748 5.23556 10.1383 4.97864 10.1383 4.7188C10.1383 2.88826 11.6105 1.4139 13.4383 1.4139Z" />
</g>
</symbol>
</svg>