<svg xmlns="http://www.w3.org/2000/svg">
<symbol id="burger" viewBox="0 0 31 24">
<g>
<path d="M0 2H31.0002" stroke="white" stroke-width="3"/>
<path d="M12 22H31" stroke="white" stroke-width="3"/>
<path d="M6 12H31" stroke="white" stroke-width="3"/>
</g>
</symbol>
<symbol id="database" viewBox="0 0 24 24">
<g>
<path d="M21 16.5H22.5V22.5H21V16.5ZM18 13.5H19.5V22.5H18V13.5ZM15 19.5H16.5V22.5H15V19.5ZM6.75 12C5.71165 12 4.69662 12.3079 3.83326 12.8848C2.9699 13.4617 2.29699 14.2816 1.89963 15.2409C1.50227 16.2002 1.39831 17.2558 1.60088 18.2742C1.80345 19.2926 2.30347 20.2281 3.03769 20.9623C3.77192 21.6965 4.70738 22.1966 5.72578 22.3991C6.74418 22.6017 7.79978 22.4977 8.75909 22.1004C9.7184 21.703 10.5383 21.0301 11.1152 20.1667C11.6921 19.3034 12 18.2884 12 17.25C11.9984 15.8581 11.4448 14.5237 10.4606 13.5394C9.47634 12.5552 8.1419 12.0016 6.75 12ZM10.4243 16.5H7.5V13.5758C8.21987 13.7241 8.88048 14.0801 9.4002 14.5998C9.91991 15.1195 10.2759 15.7801 10.4243 16.5ZM6.75 21C5.82068 21 4.92446 20.655 4.23509 20.0317C3.54572 19.4085 3.11232 18.5515 3.01892 17.6269C2.92551 16.7023 3.17876 15.7759 3.72955 15.0274C4.28035 14.2789 5.08945 13.7616 6 13.5758V16.5C6 16.8978 6.15804 17.2794 6.43934 17.5607C6.72065 17.842 7.10218 18 7.5 18H10.4243C10.2503 18.8464 9.78992 19.6069 9.12062 20.1534C8.45132 20.6999 7.61406 20.9989 6.75 21ZM16.9013 9L19.9013 4.5H22.5V3H19.0988L16.0988 7.5H13.5V1.5H12V10.5C12 10.8978 12.158 11.2794 12.4393 11.5607C12.7206 11.842 13.1022 12 13.5 12H22.5V10.5H13.5V9H16.9013Z" />
<path d="M8.25 6C8.66421 6 9 5.66421 9 5.25C9 4.83579 8.66421 4.5 8.25 4.5C7.83579 4.5 7.5 4.83579 7.5 5.25C7.5 5.66421 7.83579 6 8.25 6Z" />
<path d="M6.75 9C7.16421 9 7.5 8.66421 7.5 8.25C7.5 7.83579 7.16421 7.5 6.75 7.5C6.33579 7.5 6 7.83579 6 8.25C6 8.66421 6.33579 9 6.75 9Z" />
<path d="M5.25 4.5C5.66421 4.5 6 4.16421 6 3.75C6 3.33579 5.66421 3 5.25 3C4.83579 3 4.5 3.33579 4.5 3.75C4.5 4.16421 4.83579 4.5 5.25 4.5Z" />
<path d="M3.75 7.5C4.16421 7.5 4.5 7.16421 4.5 6.75C4.5 6.33579 4.16421 6 3.75 6C3.33579 6 3 6.33579 3 6.75C3 7.16421 3.33579 7.5 3.75 7.5Z" />
<path d="M2.25 10.5C2.66421 10.5 3 10.1642 3 9.75C3 9.33579 2.66421 9 2.25 9C1.83579 9 1.5 9.33579 1.5 9.75C1.5 10.1642 1.83579 10.5 2.25 10.5Z" />
</g>
</symbol>
<symbol id="calendar" viewBox="0 0 24 24">
<g>
<path d="M21.1667 1.84615H17.5V0H15.6667V1.84615H8.33333V0H6.5V1.84615H2.83333C1.825 1.84615 1 2.67692 1 3.69231V22.1538C1 23.1692 1.825 24 2.83333 24H21.1667C22.175 24 23 23.1692 23 22.1538V3.69231C23 2.67692 22.175 1.84615 21.1667 1.84615ZM21.1667 22.1538H2.83333V9.23077H21.1667V22.1538ZM21.1667 7.38462H2.83333V3.69231H6.5V5.53846H8.33333V3.69231H15.6667V5.53846H17.5V3.69231H21.1667V7.38462Z" />
</g>
</symbol>
<symbol id="story" viewBox="0 0 24 24">
<g>
<path d="M14.7 6.75H21V8.625H14.7V6.75ZM14.7 11.4375H21V13.3125H14.7V11.4375ZM14.7 16.125H21V18H14.7V16.125ZM3 6.75H9.3V8.625H3V6.75ZM3 11.4375H9.3V13.3125H3V11.4375ZM3 16.125H9.3V18H3V16.125Z" />
<path d="M22.2857 2.25H1.71429C1.25977 2.25047 0.823996 2.43739 0.502604 2.76974C0.181211 3.10209 0.000453837 3.55271 0 4.02273V19.9773C0.000453837 20.4473 0.181211 20.8979 0.502604 21.2303C0.823996 21.5626 1.25977 21.7495 1.71429 21.75H22.2857C22.7402 21.7495 23.176 21.5626 23.4974 21.2303C23.8188 20.8979 23.9995 20.4473 24 19.9773V4.02273C23.9995 3.55271 23.8188 3.10209 23.4974 2.76974C23.176 2.43739 22.7402 2.25047 22.2857 2.25ZM1.71429 4.02273H11.1429V19.9773H1.71429V4.02273ZM12.8571 19.9773V4.02273H22.2857V19.9773H12.8571Z" />
</g>
</symbol>
<symbol id="analytics" viewBox="0 0 24 24">
<g>
<path d="M18 15.75H19.5V19.5H18V15.75ZM15 12H16.5V19.5H15V12ZM8.25 19.5C7.2558 19.4988 6.30267 19.1033 5.59966 18.4003C4.89666 17.6973 4.50119 16.7442 4.5 15.75H6C6 16.195 6.13196 16.63 6.37919 17C6.62643 17.37 6.97783 17.6584 7.38896 17.8287C7.8001 17.999 8.2525 18.0436 8.68895 17.9568C9.12541 17.87 9.52632 17.6557 9.84099 17.341C10.1557 17.0263 10.37 16.6254 10.4568 16.189C10.5436 15.7525 10.499 15.3001 10.3287 14.889C10.1584 14.4778 9.87004 14.1264 9.50003 13.8792C9.13002 13.632 8.69501 13.5 8.25 13.5V12C9.24456 12 10.1984 12.3951 10.9017 13.0983C11.6049 13.8016 12 14.7554 12 15.75C12 16.7446 11.6049 17.6984 10.9017 18.4017C10.1984 19.1049 9.24456 19.5 8.25 19.5Z" />
<path d="M21 1.5H3C2.6023 1.5004 2.221 1.65856 1.93978 1.93978C1.65856 2.221 1.5004 2.6023 1.5 3V21C1.5004 21.3977 1.65856 21.779 1.93978 22.0602C2.221 22.3414 2.6023 22.4996 3 22.5H21C21.3976 22.4994 21.7788 22.3412 22.06 22.06C22.3412 21.7788 22.4994 21.3976 22.5 21V3C22.4996 2.6023 22.3414 2.221 22.0602 1.93978C21.779 1.65856 21.3977 1.5004 21 1.5ZM21 8.25H10.5V3H21V8.25ZM9 3V8.25H3V3H9ZM3 21V9.75H21L21.0015 21H3Z" />
</g>
</symbol>
<symbol id="about" viewBox="0 0 24 24">
<g>
<path d="M12.75 16.5V10.5H9.75V12H11.25V16.5H9V18H15V16.5H12.75ZM12 6C11.7775 6 11.56 6.06598 11.375 6.1896C11.19 6.31321 11.0458 6.48891 10.9606 6.69448C10.8755 6.90005 10.8532 7.12625 10.8966 7.34448C10.94 7.56271 11.0472 7.76316 11.2045 7.9205C11.3618 8.07783 11.5623 8.18498 11.7805 8.22838C11.9988 8.27179 12.225 8.24951 12.4305 8.16436C12.6361 8.07922 12.8118 7.93502 12.9354 7.75002C13.059 7.56501 13.125 7.3475 13.125 7.125C13.125 6.82663 13.0065 6.54048 12.7955 6.3295C12.5845 6.11853 12.2984 6 12 6Z" />
<path d="M21.1667 23H2.83333C2.34725 22.9995 1.88122 22.8062 1.53751 22.4625C1.1938 22.1188 1.00049 21.6527 1 21.1667V2.83333C1.00049 2.34725 1.1938 1.88122 1.53751 1.53751C1.88122 1.1938 2.34725 1.00049 2.83333 1H21.1667C21.6527 1.00049 22.1188 1.1938 22.4625 1.53751C22.8062 1.88122 22.9995 2.34725 23 2.83333V21.1667C22.9995 21.6527 22.8062 22.1188 22.4625 22.4625C22.1188 22.8062 21.6527 22.9995 21.1667 23ZM2.83333 2.83333V21.1667H21.1667V2.83333H2.83333Z" />
</g>
</symbol>
<symbol id="logout" viewBox="0 0 16 16">
<g>
<path d="M3 15H9C9.26514 14.9997 9.51934 14.8943 9.70681 14.7068C9.89429 14.5193 9.99974 14.2651 10 14V12.5H9V14H3V2H9V3.5H10V2C9.99974 1.73486 9.89429 1.48066 9.70681 1.29319C9.51934 1.10571 9.26514 1.00026 9 1H3C2.73486 1.00026 2.48066 1.10571 2.29319 1.29319C2.10571 1.48066 2.00026 1.73486 2 2V14C2.00026 14.2651 2.10571 14.5193 2.29319 14.7068C2.48066 14.8943 2.73486 14.9997 3 15Z"/>
<path d="M10.293 10.293L12.086 8.5H5V7.5H12.086L10.293 5.707L11 5L14 8L11 11L10.293 10.293Z"/>
</g>
</symbol>
<symbol id="edit" viewBox="0 0 16 16">
<g>
<path d="M1 13.5H15V14.5H1V13.5ZM12.7 5C13.1 4.6 13.1 4 12.7 3.6L10.9 1.8C10.5 1.4 9.9 1.4 9.5 1.8L2 9.3V12.5H5.2L12.7 5ZM10.2 2.5L12 4.3L10.5 5.8L8.7 4L10.2 2.5ZM3 11.5V9.7L8 4.7L9.8 6.5L4.8 11.5H3Z"/>
</g>
</symbol>
<symbol id="react" viewBox="0 0 20 20">
<g>
<path d="M2 19H8.6535C8.85694 18.9993 9.05539 18.9336 9.22261 18.8116C9.38983 18.6896 9.51793 18.5171 9.59 18.3168L10.9685 14.4479C10.9894 14.3888 11.0001 14.3262 11 14.2632V13.2105C11 12.63 10.5515 12.1579 10 12.1579H7.194L7.755 10.3858C7.80502 10.2276 7.81868 10.0591 7.79486 9.89423C7.77105 9.72937 7.71044 9.5728 7.618 9.43737C7.43 9.16368 7.127 9 6.806 9H6C5.8515 9 5.711 9.06947 5.6155 9.18947L3.2655 12.1579H2C1.4485 12.1579 1 12.63 1 13.2105V17.9474C1 18.5279 1.4485 19 2 19ZM6.2345 10.0526H6.807L6.026 12.5179C6.00098 12.597 5.99416 12.6812 6.0061 12.7636C6.01804 12.846 6.0484 12.9242 6.09468 12.9918C6.14097 13.0595 6.20185 13.1146 6.27231 13.1526C6.34278 13.1906 6.42082 13.2105 6.5 13.2105H10V14.1679L8.6535 17.9474H4L4 12.8747L6.2345 10.0526ZM3 13.2105L3 17.9474H2L1.9995 13.2105H3Z" />
<path d="M10 1L16.6535 1C16.8569 1.00071 17.0554 1.0664 17.2226 1.18838C17.3898 1.31036 17.5179 1.48289 17.59 1.68316L18.9685 5.55211C18.9894 5.6112 19.0001 5.67377 19 5.73684V6.78947C19 7.37 18.5515 7.84211 18 7.84211L15.194 7.84211L15.755 9.61421C15.805 9.77244 15.8187 9.9409 15.7949 10.1058C15.771 10.2706 15.7104 10.4272 15.618 10.5626C15.43 10.8363 15.127 11 14.806 11H14C13.8515 11 13.711 10.9305 13.6155 10.8105L11.2655 7.84211H10C9.4485 7.84211 9 7.37 9 6.78947V2.05263C9 1.47211 9.4485 1 10 1ZM14.2345 9.94737H14.807L14.026 7.48211C14.001 7.40303 13.9942 7.31882 14.0061 7.23642C14.018 7.15402 14.0484 7.07579 14.0947 7.00816C14.141 6.94053 14.2018 6.88543 14.2723 6.84741C14.3428 6.8094 14.4208 6.78954 14.5 6.78947L18 6.78947V5.83211L16.6535 2.05263L12 2.05263V7.12526L14.2345 9.94737ZM11 6.78947V2.05263H10L9.9995 6.78947H11Z" />
<circle cx="18" cy="2" r="2" fill="#FFEB39"/>
</g>
</symbol>
<symbol id="replies" viewBox="0 0 20 20">
<g>
<path d="M17.5 1.25H11.25C10.5625 1.25 10 1.8125 10 2.5V6.25C10 6.9375 10.5625 7.5 11.25 7.5H12.75L13.8125 9.375L14.875 8.75L13.4375 6.25H11.25V2.5H17.5V6.25H15.625V7.5H17.5C18.1875 7.5 18.75 6.9375 18.75 6.25V2.5C18.75 1.8125 18.1875 1.25 17.5 1.25ZM9.1875 19.375L8.125 18.75L10.3125 15H13.75C14.4375 15 15 14.4375 15 13.75V10.625H16.25V13.75C16.25 15.125 15.125 16.25 13.75 16.25H11L9.1875 19.375Z" />
<path d="M6.25 11.25C6.59518 11.25 6.875 10.9702 6.875 10.625C6.875 10.2798 6.59518 10 6.25 10C5.90482 10 5.625 10.2798 5.625 10.625C5.625 10.9702 5.90482 11.25 6.25 11.25Z" />
<path d="M8.75 11.25C9.09518 11.25 9.375 10.9702 9.375 10.625C9.375 10.2798 9.09518 10 8.75 10C8.40482 10 8.125 10.2798 8.125 10.625C8.125 10.9702 8.40482 11.25 8.75 11.25Z" />
<path d="M11.25 11.25C11.5952 11.25 11.875 10.9702 11.875 10.625C11.875 10.2798 11.5952 10 11.25 10C10.9048 10 10.625 10.2798 10.625 10.625C10.625 10.9702 10.9048 11.25 11.25 11.25Z" />
<path d="M7.5 16.25H3.75C2.375 16.25 1.25 15.125 1.25 13.75V7.5C1.25 6.125 2.375 5 3.75 5H8.75V6.25H3.75C3.0625 6.25 2.5 6.8125 2.5 7.5V13.75C2.5 14.4375 3.0625 15 3.75 15H7.5V16.25Z" />
</g>
</symbol>
<symbol id="comments" viewBox="0 0 20 20">
<g>
<path d="M11.0875 18.75L10 18.125L12.5 13.75H16.25C16.5815 13.75 16.8995 13.6183 17.1339 13.3839C17.3683 13.1495 17.5 12.8315 17.5 12.5V5C17.5 4.66848 17.3683 4.35054 17.1339 4.11612C16.8995 3.8817 16.5815 3.75 16.25 3.75H3.75C3.41848 3.75 3.10054 3.8817 2.86612 4.11612C2.6317 4.35054 2.5 4.66848 2.5 5V12.5C2.5 12.8315 2.6317 13.1495 2.86612 13.3839C3.10054 13.6183 3.41848 13.75 3.75 13.75H9.375V15H3.75C3.08696 15 2.45107 14.7366 1.98223 14.2678C1.51339 13.7989 1.25 13.163 1.25 12.5V5C1.25 4.33696 1.51339 3.70107 1.98223 3.23223C2.45107 2.76339 3.08696 2.5 3.75 2.5H16.25C16.913 2.5 17.5489 2.76339 18.0178 3.23223C18.4866 3.70107 18.75 4.33696 18.75 5V12.5C18.75 13.163 18.4866 13.7989 18.0178 14.2678C17.5489 14.7366 16.913 15 16.25 15H13.225L11.0875 18.75Z" />
<path d="M5 6.25H15V7.5H5V6.25ZM5 10H11.25V11.25H5V10Z" />
</g>
</symbol>
<symbol id="search" viewBox="0 0 12 12">
<g>
<path d="M10.8409 11.8122L7.02273 7.98862C6.68182 8.26173 6.28977 8.47795 5.84659 8.63727C5.40341 8.79659 4.93182 8.87624 4.43182 8.87624C3.19318 8.87624 2.145 8.44677 1.28727 7.58782C0.429091 6.72842 0 5.67852 0 4.43812C0 3.19772 0.429091 2.14782 1.28727 1.28842C2.145 0.429474 3.19318 0 4.43182 0C5.67045 0 6.71886 0.429474 7.57705 1.28842C8.43477 2.14782 8.86364 3.19772 8.86364 4.43812C8.86364 4.93883 8.78409 5.41109 8.625 5.85491C8.46591 6.29872 8.25 6.69132 7.97727 7.03272L11.8125 10.8734C11.9375 10.9986 12 11.1522 12 11.3343C12 11.5164 11.9318 11.6757 11.7955 11.8122C11.6705 11.9374 11.5114 12 11.3182 12C11.125 12 10.9659 11.9374 10.8409 11.8122ZM4.43182 7.51067C5.28409 7.51067 6.00864 7.21206 6.60545 6.61485C7.20182 6.01718 7.5 5.29161 7.5 4.43812C7.5 3.58464 7.20182 2.85906 6.60545 2.26139C6.00864 1.66418 5.28409 1.36558 4.43182 1.36558C3.57955 1.36558 2.855 1.66418 2.25818 2.26139C1.66182 2.85906 1.36364 3.58464 1.36364 4.43812C1.36364 5.29161 1.66182 6.01718 2.25818 6.61485C2.855 7.21206 3.57955 7.51067 4.43182 7.51067Z" fill="#7F7F7F"/>
</g>
</symbol>
<symbol id="favor" viewBox="0 0 14 18">
<g>
<path d="M11.9999 0.666504H1.99992C1.08075 0.666504 0.333252 1.414 0.333252 2.33317V17.3332L6.99992 13.5232L13.6666 17.3332V2.33317C13.6666 1.414 12.9191 0.666504 11.9999 0.666504ZM11.9999 14.4607L6.99992 11.604L1.99992 14.4607V2.33317H11.9999V14.4607Z" />
</g>
</symbol>
<symbol id="like" viewBox="0 0 17 16">
<g>
<path d="M1.66675 15.833H12.7559C13.095 15.8319 13.4257 15.7279 13.7044 15.5347C13.9831 15.3416 14.1966 15.0684 14.3167 14.7513L16.6142 8.62551C16.6491 8.53194 16.6669 8.43287 16.6667 8.33301V6.66634C16.6667 5.74717 15.9192 4.99967 15.0001 4.99967H10.3234L11.2584 2.19384C11.3418 1.94331 11.3645 1.67658 11.3249 1.41555C11.2852 1.15451 11.1841 0.906605 11.0301 0.692174C10.7167 0.258841 10.2117 -0.000325203 9.67675 -0.000325203H8.33341C8.08591 -0.000325203 7.85175 0.109675 7.69258 0.299675L3.77591 4.99967H1.66675C0.747581 4.99967 8.01086e-05 5.74717 8.01086e-05 6.66634V14.1663C8.01086e-05 15.0855 0.747581 15.833 1.66675 15.833ZM8.72425 1.66634H9.67841L8.37675 5.56967C8.33504 5.69489 8.32368 5.82821 8.34358 5.95867C8.36348 6.08914 8.41408 6.21301 8.49122 6.32009C8.56836 6.42717 8.66982 6.5144 8.78727 6.5746C8.90471 6.6348 9.03477 6.66624 9.16675 6.66634H15.0001V8.18217L12.7559 14.1663H5.00008V6.13468L8.72425 1.66634ZM3.33341 6.66634V14.1663H1.66675L1.66591 6.66634H3.33341Z" />
</g>
</symbol>
</svg>